#N canvas 295 50 719 698 10;
#X obj 127 255 noise~;
#X obj 116 460 dac~;
#X msg 36 165 \; pd dsp \$1 \;;
#X msg 36 138 1;
#X obj 36 107 loadbang;
#X obj 127 306 lop~ 100;
#X obj 127 278 lop~ 1000;
#X obj 244 244 vsl 15 128 0 1 0 0 empty empty empty 0 -9 0 10 -262144
-1 -1 0 1;
#X obj 244 391 pack 0 50;
#X obj 244 429 line~;
#X obj 127 356 *~;
#X obj 363 223 del 101;
#X obj 363 170 expr $i1 + 1;
#X floatatom 363 195 5 0 0 0 - - -;
#X obj 296 223 line 1 1;
#X msg 296 198 1 \$1;
#X floatatom 295 136 5 0 0 0 - - -;
#X obj 295 104 bng 15 250 50 0 empty empty empty 17 7 0 10 -262144
-1 -1;
#X msg 363 254 0 555;
#X text 31 17 last updated: 21/12/22;
#X connect 0 0 6 0;
#X connect 3 0 2 0;
#X connect 4 0 3 0;
#X connect 4 0 17 0;
#X connect 5 0 10 0;
#X connect 6 0 5 0;
#X connect 7 0 8 0;
#X connect 8 0 9 0;
#X connect 9 0 10 1;
#X connect 10 0 1 0;
#X connect 10 0 1 1;
#X connect 11 0 18 0;
#X connect 12 0 13 0;
#X connect 13 0 11 0;
#X connect 14 0 7 0;
#X connect 15 0 14 0;
#X connect 16 0 15 0;
#X connect 16 0 12 0;
#X connect 17 0 16 0;
#X connect 18 0 14 0;
