#N canvas 297 50 719 697 10;
#X obj 121 625 dac~;
#X obj 131 579 *~;
#X obj 61 341 vsl 15 128 0 1 0 0 empty empty empty 0 -9 0 10 -262144
-1 -1 6350 1;
#X obj 61 488 pack 0 50;
#X obj 61 526 line~;
#X msg 71 178 \; pd dsp \$1 \;;
#X msg 29 124 1;
#X obj 29 60 loadbang;
#X msg 60 309 0.5;
#N canvas 0 22 450 278 (subpatch) 0;
#X array anothersample 44103 float 2;
#X coords 0 1 44103 -1 200 140 1;
#X restore 335 254 graph;
#X obj 206 154 soundfiler;
#X floatatom 206 187 9 0 0 0 - - -;
#X text 265 188 # of smpls;
#X obj 217 478 tabread4~ anothersample;
#X obj 217 407 line~;
#X obj 233 211 / 44.1;
#X floatatom 233 234 5 0 0 0 - - -;
#X obj 217 313 pack 0 0;
#X obj 239 282 i;
#X msg 217 339 1 \, \$1 \$2;
#X obj 265 406 print;
#X obj 150 121 bng 15 250 50 0 empty empty empty 17 7 0 10 -262144
-1 -1;
#X text 31 17 last updated: 21/12/22;
#X msg 206 120 read -resize happyklang.wav anothersample;
#X connect 1 0 0 0;
#X connect 1 0 0 1;
#X connect 2 0 3 0;
#X connect 3 0 4 0;
#X connect 4 0 1 1;
#X connect 6 0 5 0;
#X connect 6 0 8 0;
#X connect 7 0 6 0;
#X connect 7 0 21 0;
#X connect 8 0 2 0;
#X connect 10 0 11 0;
#X connect 11 0 15 0;
#X connect 11 0 17 0;
#X connect 13 0 1 0;
#X connect 14 0 13 0;
#X connect 15 0 16 0;
#X connect 16 0 18 0;
#X connect 17 0 19 0;
#X connect 18 0 17 1;
#X connect 19 0 20 0;
#X connect 19 0 14 0;
#X connect 21 0 23 0;
#X connect 23 0 10 0;
