#N canvas 58 50 1331 733 10;
#X obj 16 569 *~;
#X obj 31 347 vsl 15 128 0 1 0 0 empty empty empty 0 -9 0 10 -262144
-1 -1 6350 1;
#X obj 31 493 pack 0 50;
#X obj 31 524 line~;
#X obj 165 466 *~;
#X obj 240 405 bng 15 250 50 0 empty empty empty 17 7 0 10 -262144
-1 -1;
#X obj 240 337 tgl 15 0 empty empty empty 17 7 0 10 -262144 -1 -1 0
1;
#X msg 73 136 \; pd dsp \$1 \;;
#X msg 31 77 1;
#X obj 31 46 loadbang;
#X msg 32 139 0.5;
#X obj 165 435 osc~ 220;
#X floatatom 165 405 5 0 0 0 - - -;
#X obj 240 497 line~;
#X msg 240 435 1 50;
#X obj 299 455 delay 300;
#X obj 240 367 metro 1000;
#X obj 436 682 dac~;
#X msg 240 466 0 500;
#X msg 386 333 1;
#X obj 386 364 +;
#X floatatom 386 398 5 0 0 0 - - -;
#X msg 310 410 0;
#X obj 386 472 sel 5;
#X msg 240 312 1;
#X obj 469 405 noise~;
#X obj 469 456 lop~ 100;
#X obj 469 428 lop~ 1000;
#X obj 536 549 line~;
#X obj 469 506 *~;
#X obj 535 217 bng 15 250 50 0 empty empty empty 17 7 0 10 -262144
-1 -1;
#X text 88 45 to control command symfwna me to sxhma sou;
#X text 88 65 lamvanei entoli mia fora \, otan anoigei to patch;
#X obj 240 184 receive countdown;
#X obj 184 144 inlet countdown;
#X text 88 85 energopoiei ton hxo kai setarei tis arxikes entaseis
;
#X text 31 17 last updated: 04/01/23;
#X obj 535 184 receive collision;
#X obj 479 144 inlet collision;
#X obj 756 579 *~;
#X obj 771 341 vsl 15 128 0 1 0 0 empty empty empty 0 -9 0 10 -262144
-1 -1 6350 1;
#X obj 771 488 pack 0 50;
#X obj 771 526 line~;
#X msg 770 142 0.5;
#N canvas 0 22 450 278 (subpatch) 0;
#X array anothersample 44103 float 2;
#X coords 0 1 44103 -1 200 140 1;
#X restore 1005 384 graph;
#X obj 886 284 soundfiler;
#X floatatom 886 317 9 0 0 0 - - -;
#X text 945 318 # of smpls;
#X obj 887 608 tabread4~ anothersample;
#X obj 887 537 line~;
#X obj 913 341 / 44.1;
#X floatatom 913 364 5 0 0 0 - - -;
#X obj 887 443 pack 0 0;
#X obj 919 412 i;
#X msg 887 469 1 \, \$1 \$2;
#X obj 886 228 bng 15 250 50 0 empty empty empty 17 7 0 10 -262144
-1 -1;
#X msg 886 250 read -resize game-assets/pure-data-patches/happyklang.wav anothersample;
#X obj 886 184 receive collect;
#X obj 829 144 inlet collect;
#X msg 535 266 1 \, 0 555;
#X connect 0 0 17 0;
#X connect 0 0 17 1;
#X connect 1 0 2 0;
#X connect 2 0 3 0;
#X connect 3 0 0 1;
#X connect 4 0 0 0;
#X connect 5 0 14 0;
#X connect 5 0 15 0;
#X connect 5 0 19 0;
#X connect 6 0 16 0;
#X connect 8 0 7 0;
#X connect 8 0 10 0;
#X connect 8 0 43 0;
#X connect 9 0 8 0;
#X connect 10 0 1 0;
#X connect 11 0 4 0;
#X connect 12 0 11 0;
#X connect 13 0 4 1;
#X connect 14 0 13 0;
#X connect 15 0 18 0;
#X connect 16 0 5 0;
#X connect 18 0 13 0;
#X connect 19 0 20 0;
#X connect 20 0 21 0;
#X connect 21 0 20 1;
#X connect 21 0 23 0;
#X connect 22 0 20 1;
#X connect 22 0 6 0;
#X connect 23 0 22 0;
#X connect 24 0 6 0;
#X connect 25 0 27 0;
#X connect 26 0 29 0;
#X connect 27 0 26 0;
#X connect 28 0 29 1;
#X connect 29 0 17 0;
#X connect 29 0 17 1;
#X connect 30 0 59 0;
#X connect 33 0 24 0;
#X connect 34 0 24 0;
#X connect 37 0 30 0;
#X connect 38 0 30 0;
#X connect 39 0 17 0;
#X connect 39 0 17 1;
#X connect 40 0 41 0;
#X connect 41 0 42 0;
#X connect 42 0 39 1;
#X connect 43 0 40 0;
#X connect 45 0 46 0;
#X connect 46 0 50 0;
#X connect 46 0 52 0;
#X connect 48 0 39 0;
#X connect 49 0 48 0;
#X connect 50 0 51 0;
#X connect 51 0 53 0;
#X connect 52 0 54 0;
#X connect 53 0 52 1;
#X connect 54 0 49 0;
#X connect 55 0 56 0;
#X connect 56 0 45 0;
#X connect 57 0 55 0;
#X connect 58 0 55 0;
#X connect 59 0 28 0;
