#N canvas 297 50 718 699 10;
#X obj 121 583 *~;
#X obj 90 347 vsl 15 128 0 1 0 0 empty empty empty 0 -9 0 10 -262144
-1 -1 6350 1;
#X obj 90 493 pack 0 50;
#X obj 90 524 line~;
#X obj 165 466 *~;
#X obj 240 405 bng 15 250 50 0 empty empty empty 17 7 0 10 -262144
-1 -1;
#X obj 338 247 tgl 15 0 empty empty empty 17 7 0 10 -262144 -1 -1 0
1;
#X msg 56 122 \; pd dsp \$1 \;;
#X msg 31 77 1;
#X obj 31 46 loadbang;
#X msg 90 314 0.5;
#X obj 165 435 osc~ 220;
#X floatatom 165 405 5 0 0 0 - - -;
#X obj 240 497 line~;
#X msg 240 435 1 50;
#X obj 299 455 delay 300;
#X obj 338 277 metro 1000;
#X obj 112 624 dac~;
#X msg 240 466 0 500;
#X msg 526 383 1;
#X obj 526 414 +;
#X floatatom 526 448 5 0 0 0 - - -;
#X msg 450 460 0;
#X obj 526 522 sel 5;
#X text 31 17 last updated: 21/12/22;
#X connect 0 0 17 0;
#X connect 0 0 17 1;
#X connect 1 0 2 0;
#X connect 2 0 3 0;
#X connect 3 0 0 1;
#X connect 4 0 0 0;
#X connect 5 0 14 0;
#X connect 5 0 15 0;
#X connect 5 0 19 0;
#X connect 6 0 16 0;
#X connect 8 0 7 0;
#X connect 8 0 6 0;
#X connect 8 0 10 0;
#X connect 9 0 8 0;
#X connect 10 0 1 0;
#X connect 11 0 4 0;
#X connect 12 0 11 0;
#X connect 13 0 4 1;
#X connect 14 0 13 0;
#X connect 15 0 18 0;
#X connect 16 0 5 0;
#X connect 18 0 13 0;
#X connect 19 0 20 0;
#X connect 20 0 21 0;
#X connect 21 0 20 1;
#X connect 21 0 23 0;
#X connect 22 0 20 1;
#X connect 22 0 6 0;
#X connect 23 0 22 0;
