#N canvas 159 52 1238 749 12;
#X obj 491 690 dac~;
#X obj 51 510 noise~;
#X obj 51 561 lop~ 100;
#X obj 51 533 lop~ 1000;
#X obj 138 560 line~;
#X obj 51 587 *~;
#X obj 138 516 bng 15 250 50 0 empty empty empty 17 7 0 10 -262144
-1 -1;
#X obj 31 46 loadbang;
#X obj 357 551 *~;
#X obj 375 344 vsl 15 128 0 1 0 0 empty empty empty 0 -9 0 10 -262144
-1 -1 1270 1;
#X obj 375 490 pack 0 50;
#X obj 375 521 line~;
#X obj 428 540 *~;
#X floatatom 446 435 5 0 0 0 - - -;
#X obj 530 516 line~;
#X obj 545 427 bng 15 250 50 0 empty empty empty 17 7 0 10 -262144
-1 -1;
#X obj 572 463 delay 300;
#X obj 803 663 *~;
#X obj 728 404 vsl 15 128 0 1 0 0 empty empty empty 0 -9 0 10 -262144
-1 -1 6350 1;
#X obj 728 549 pack 0 50;
#X obj 728 577 line~;
#X msg 728 376 0.5;
#N canvas 0 22 450 278 (subpatch) 0;
#X array anothersample 157823 float 2;
#X coords 0 1 157823 -1 200 140 1;
#X restore 912 421 graph;
#X obj 823 321 soundfiler;
#X floatatom 823 354 9 0 0 0 - - -;
#X text 892 355 # of smpls;
#X obj 824 585 tabread4~ anothersample;
#X obj 824 534 line~;
#X obj 850 378 / 44.1;
#X floatatom 852 408 5 0 0 0 - - -;
#X obj 824 480 pack 0 0;
#X obj 856 449 i;
#X msg 824 506 1 \, \$1 \$2;
#X obj 823 265 bng 15 250 50 0 empty empty empty 17 7 0 10 -262144
-1 -1;
#X text 817 139 load and play an audio file;
#X text 423 138 create and play an oscillation event;
#X msg 529 462 1 30;
#X msg 570 491 0 30;
#X msg 355 316 0.1;
#X msg 138 535 1 \, 0 555;
#X text 26 140 create and play a noise event;
#X msg 823 287 read -resize game-assets/pure-data-patches/background.wav anothersample;
#X obj 884 243 delay 300;
#X obj 138 175 receive collision;
#X obj 499 175 receive collect;
#X obj 446 465 osc~ 200;
#X obj 822 175 receive blip;
#X connect 1 0 3 0;
#X connect 2 0 5 0;
#X connect 3 0 2 0;
#X connect 4 0 5 1;
#X connect 5 0 0 0;
#X connect 5 0 0 1;
#X connect 6 0 39 0;
#X connect 7 0 38 0;
#X connect 7 0 21 0;
#X connect 8 0 0 0;
#X connect 8 0 0 1;
#X connect 9 0 10 0;
#X connect 10 0 11 0;
#X connect 11 0 8 1;
#X connect 12 0 8 0;
#X connect 13 0 45 0;
#X connect 14 0 12 0;
#X connect 15 0 36 0;
#X connect 15 0 16 0;
#X connect 16 0 37 0;
#X connect 17 0 0 0;
#X connect 17 0 0 1;
#X connect 18 0 19 0;
#X connect 19 0 20 0;
#X connect 20 0 17 1;
#X connect 21 0 18 0;
#X connect 23 0 24 0;
#X connect 24 0 28 0;
#X connect 24 0 30 0;
#X connect 26 0 17 0;
#X connect 27 0 26 0;
#X connect 28 0 29 0;
#X connect 29 0 31 0;
#X connect 29 0 42 1;
#X connect 30 0 32 0;
#X connect 31 0 30 1;
#X connect 32 0 27 0;
#X connect 33 0 41 0;
#X connect 33 0 42 0;
#X connect 36 0 14 0;
#X connect 37 0 14 0;
#X connect 38 0 9 0;
#X connect 39 0 4 0;
#X connect 41 0 23 0;
#X connect 42 0 33 0;
#X connect 43 0 6 0;
#X connect 44 0 15 0;
#X connect 45 0 12 1;
#X connect 46 0 33 0;
