#N canvas 159 52 1238 749 12;
#X obj 491 690 dac~;
#X obj 51 510 noise~;
#X obj 51 561 lop~ 100;
#X obj 51 533 lop~ 1000;
#X obj 138 560 line~;
#X obj 51 587 *~;
#X obj 138 516 bng 15 250 50 0 empty empty empty 17 7 0 10 -262144
-1 -1;
#X obj 138 175 receive collision;
#X msg 138 535 1 \, 0 555;
#X obj 31 46 loadbang;
#X obj 338 616 *~;
#X obj 355 344 vsl 15 128 0 1 0 0 empty empty empty 0 -9 0 10 -262144
-1 -1 6350 1;
#X obj 355 490 pack 0 50;
#X obj 355 521 line~;
#X obj 426 521 *~;
#X msg 355 316 0.5;
#X obj 426 465 osc~ 220;
#X floatatom 426 435 5 0 0 0 - - -;
#X obj 501 534 line~;
#X obj 500 428 bng 15 250 50 0 empty empty empty 17 7 0 10 -262144
-1 -1;
#X obj 822 175 receive collect;
#X obj 572 463 delay 300;
#X obj 803 663 *~;
#X obj 728 404 vsl 15 128 0 1 0 0 empty empty empty 0 -9 0 10 -262144
-1 -1 6350 1;
#X obj 728 549 pack 0 50;
#X obj 728 577 line~;
#X msg 728 376 0.5;
#N canvas 0 22 450 278 (subpatch) 0;
#X array anothersample 44103 float 2;
#X coords 0 1 44103 -1 200 140 1;
#X restore 912 421 graph;
#X obj 823 321 soundfiler;
#X floatatom 823 354 9 0 0 0 - - -;
#X text 892 355 # of smpls;
#X obj 824 585 tabread4~ anothersample;
#X obj 824 534 line~;
#X obj 850 378 / 44.1;
#X floatatom 850 401 5 0 0 0 - - -;
#X obj 824 480 pack 0 0;
#X obj 856 449 i;
#X msg 824 506 1 \, \$1 \$2;
#X obj 823 265 bng 15 250 50 0 empty empty empty 17 7 0 10 -262144
-1 -1;
#X msg 823 287 read -resize ../game-assets/pure-data-patches/happyklang.wav anothersample;
#X obj 499 175 receive blip;
#X text 852 253 load and play an audio file;
#X text 394 388 create and play an oscillation event;
#X text 31 474 create and play a noise event;
#X msg 500 463 1 30;
#X msg 570 491 0 30;
#X connect 1 0 3 0;
#X connect 2 0 5 0;
#X connect 3 0 2 0;
#X connect 4 0 5 1;
#X connect 5 0 0 0;
#X connect 5 0 0 1;
#X connect 6 0 8 0;
#X connect 7 0 6 0;
#X connect 8 0 4 0;
#X connect 9 0 15 0;
#X connect 9 0 26 0;
#X connect 10 0 0 0;
#X connect 10 0 0 1;
#X connect 11 0 12 0;
#X connect 12 0 13 0;
#X connect 13 0 10 1;
#X connect 14 0 10 0;
#X connect 15 0 11 0;
#X connect 16 0 14 1;
#X connect 17 0 16 0;
#X connect 18 0 14 0;
#X connect 19 0 44 0;
#X connect 19 0 21 0;
#X connect 20 0 38 0;
#X connect 21 0 45 0;
#X connect 22 0 0 0;
#X connect 22 0 0 1;
#X connect 23 0 24 0;
#X connect 24 0 25 0;
#X connect 25 0 22 1;
#X connect 26 0 23 0;
#X connect 28 0 29 0;
#X connect 29 0 33 0;
#X connect 29 0 35 0;
#X connect 31 0 22 0;
#X connect 32 0 31 0;
#X connect 33 0 34 0;
#X connect 34 0 36 0;
#X connect 35 0 37 0;
#X connect 36 0 35 1;
#X connect 37 0 32 0;
#X connect 38 0 39 0;
#X connect 39 0 28 0;
#X connect 40 0 19 0;
#X connect 44 0 18 0;
#X connect 45 0 18 0;
